<?xml version="1.0" encoding="utf-8"?>
<!--Designed by Vexels.com - 2017 All Rights Reserved - https://vexels.com/terms-and-conditions/-->
<svg version="1.1" id="Layer_1" xmlns="http://www.w3.org/2000/svg" xmlns:xlink="http://www.w3.org/1999/xlink" x="0px" y="0px"
	 viewBox="0 0 1200 1200" enable-background="new 0 0 1200 1200" xml:space="preserve">
<g>
	<path opacity="0.1" d="M1047.43,821.624L927.408,789.2l-308.907,9.039c-9.642,0.282-18.43,1.546-24.375,3.507l-215.427,71.037
		c-3.508,1.157-7.58,2.194-12.119,3.087l-144.179,28.361l37.247,39.234l267.106,6.905l222.588-11.377l217.38,1.629
		c20.163,0.151,39.77-1.55,55.357-4.753c1.218-0.221,2.404-0.46,3.511-0.735L1150,904.231l-35.392-48.841
		C1105.423,842.714,1082.093,830.988,1047.43,821.624z"/>
	<g>
		<g>
			<path fill="#7C7972" d="M966.698,390.604L833.341,249.63l13.051,217.092L735.489,683.814l-197.076,46.571l-163.05,62.291
				l-119.096,42.278L50,749.766l41.386,170.581L388.17,950.37l247.32-49.464l241.534,7.081c25.357,0.743,49.934-8.816,68.124-26.497
				l135.518-131.724l-39.325-212.354C1031.135,482.303,1005.214,431.32,966.698,390.604z"/>
			<path fill="#99958C" d="M375.362,792.676l163.05-62.291l197.076-46.571l110.904-217.092L833.341,249.63l-343.231,39.302
				c-10.713,1.227-20.477,6.724-27.083,15.247L223.664,613.035c-3.898,5.029-8.423,9.54-13.465,13.421L50,749.766l206.266,85.188
				L375.362,792.676z"/>
		</g>
		<path fill="#A8A59E" d="M846.393,466.722l-261.336-123.21c-31.448-14.827-62.464,21.147-43.171,50.07l193.603,290.232
			L846.393,466.722z"/>
		<path fill="#A8A59E" d="M256.323,570.895l72.273-93.255l0.936,142.82l208.881,109.925l-163.05,62.291l-115.09-125.68
			C235.731,640.198,234.063,599.617,256.323,570.895z"/>
		<polygon fill="#605D58" points="735.489,683.814 635.49,900.906 538.412,730.385 		"/>
		<polygon fill="#514E47" points="375.362,792.676 388.17,950.37 256.266,834.954 		"/>
		<polygon fill="#605D58" points="112.27,775.483 91.386,920.347 50,749.766 		"/>
		<polygon fill="#514E47" points="635.49,900.906 492.432,929.517 569.22,784.5 		"/>
		<path fill="#514E47" d="M1080.665,749.766L846.393,466.722L735.489,683.814l158.706,197.36
			c12.068,15.007,34.43,16.376,48.238,2.954L1080.665,749.766z"/>
		<path fill="#605D58" d="M939.816,459.563l-93.424,7.159L833.341,249.63l133.167,140.774
			C990.254,415.506,974.268,456.923,939.816,459.563z"/>
		<path fill="#605D58" d="M924.361,881.303l52.451-190.42c5.754-20.891-14.533-39.536-34.865-32.042l-174.751,64.404L898.59,886.641
			C906.144,896.034,921.16,892.924,924.361,881.303z"/>
	</g>
</g>
</svg>
